<?xml version="1.0" encoding="utf-8"?>
<!-- Generator: Adobe Illustrator 27.1.1, SVG Export Plug-In . SVG Version: 6.00 Build 0)  -->
<svg version="1.1" id="Layer_1" xmlns="http://www.w3.org/2000/svg" xmlns:xlink="http://www.w3.org/1999/xlink" x="0px" y="0px"
	 viewBox="0 0 522.6 197.7" style="enable-background:new 0 0 522.6 197.7;" xml:space="preserve">
<style type="text/css">
	.st0{fill:#2075BC;}
	.st1{fill:#F15B29;}
	.st2{fill-rule:evenodd;clip-rule:evenodd;fill:#2A3C90;}
	.st3{fill-rule:evenodd;clip-rule:evenodd;fill:#F15B29;}
	.st4{fill:#29AAE1;}
	.st5{fill:url(#SVGID_1_);}
	.st6{fill:url(#SVGID_00000073695381534069687190000010344654261044778898_);}
	.st7{fill:url(#SVGID_00000085973685465940854250000005683456533162919096_);}
</style>
<g>
	<path class="st0" d="M250.2,87.3c-1.8-1-3.1-2.5-4.1-4.4c-1-1.9-1.5-4.1-1.5-6.5v-9.1c0-2.5,0.5-4.6,1.5-6.5c1-1.9,2.4-3.3,4.2-4.4
		c1.8-1,3.9-1.5,6.3-1.5h5c2.2,0,4.2,0.5,6,1.4c1.7,1,3.1,2.3,4,4.1s1.4,3.8,1.4,6.1h-5.4c0-2-0.6-3.6-1.7-4.9s-2.5-1.8-4.3-1.8h-5
		c-1.9,0-3.5,0.7-4.6,2.1c-1.2,1.4-1.8,3.3-1.8,5.6v8.7c0,2.3,0.6,4.2,1.7,5.6c1.1,1.4,2.6,2.1,4.5,2.1h5.1c1.8,0,3.3-0.7,4.5-2.1
		c1.1-1.4,1.7-3.2,1.7-5.4h5.4c0,2.5-0.5,4.6-1.4,6.5c-1,1.9-2.3,3.3-4.1,4.3c-1.8,1-3.8,1.5-6.1,1.5h-5.1
		C254,88.8,251.9,88.3,250.2,87.3z"/>
	<path class="st0" d="M282.5,87.3c-1.8-1-3.3-2.5-4.3-4.4c-1-1.9-1.5-4.1-1.5-6.5v-9.1c0-2.5,0.5-4.6,1.5-6.5c1-1.9,2.4-3.3,4.3-4.4
		c1.8-1,3.9-1.5,6.3-1.5h5c2.4,0,4.5,0.5,6.4,1.5c1.8,1,3.3,2.5,4.3,4.4c1,1.9,1.5,4,1.5,6.5v9.1c0,2.5-0.5,4.6-1.5,6.5
		c-1,1.9-2.4,3.3-4.3,4.4c-1.8,1-4,1.5-6.4,1.5h-5C286.5,88.8,284.3,88.3,282.5,87.3z M293.9,84c2,0,3.6-0.7,4.8-2.1
		c1.2-1.4,1.8-3.3,1.8-5.6v-8.7c0-2.3-0.6-4.2-1.8-5.6c-1.2-1.4-2.8-2.1-4.8-2.1h-5c-2,0-3.6,0.7-4.8,2.1c-1.2,1.4-1.8,3.3-1.8,5.6
		v8.7c0,2.3,0.6,4.2,1.8,5.6c1.2,1.4,2.8,2.1,4.8,2.1H293.9z"/>
	<path class="st0" d="M311.5,55.3h5l11.2,20.5l10.9-20.5h5v33.2h-5.4V65.6l-7.8,14.5c-0.4,0.8-0.9,1.3-1.3,1.6s-0.9,0.5-1.4,0.5
		h-1.6l-9.2-16.6v22.9h-5.4V55.3z"/>
	<path class="st0" d="M350.1,55.3h17c2.8,0,5,0.8,6.7,2.3c1.7,1.6,2.6,3.6,2.6,6.2v4.5c0,2.7-0.9,4.8-2.7,6.5
		c-1.8,1.6-4.1,2.4-7,2.4h-11v11.2h-5.5V55.3z M366.6,72.4c1.3,0,2.3-0.4,3.1-1.2c0.8-0.8,1.2-1.8,1.2-3.1V64c0-1.2-0.3-2.1-1-2.8
		c-0.7-0.7-1.6-1-2.8-1h-11.4v12.3H366.6z"/>
	<path class="st0" d="M385.7,87.4c-1.7-1-3-2.3-4-4.1c-0.9-1.8-1.4-3.8-1.4-6.1V55.3h5.5v21.8c0,2.1,0.5,3.7,1.6,4.9
		c1,1.2,2.4,1.9,4.1,1.9h5.1c1.7,0,3.1-0.6,4.2-1.9c1.1-1.2,1.6-2.9,1.6-4.9V55.3h5.5v21.9c0,2.3-0.5,4.3-1.4,6.1
		c-0.9,1.8-2.3,3.1-4,4.1c-1.7,1-3.7,1.4-5.9,1.4h-5.1C389.4,88.8,387.4,88.4,385.7,87.4z"/>
	<path class="st0" d="M422.4,60.1h-10.5v-4.8h26.6v4.8h-10.5v28.4h-5.5V60.1z"/>
	<path class="st0" d="M443.6,87.3c-0.7-0.7-1.1-1.7-1.1-2.9V55.3h24.3v4.8h-18.8v9h17.3v4.8h-17.3v9.8h18.8v4.8h-20.2
		C445.4,88.5,444.4,88.1,443.6,87.3z"/>
	<path class="st0" d="M471.8,55.3h17.1c2.7,0,4.9,0.7,6.6,2.2c1.7,1.5,2.5,3.4,2.5,5.9v3.4c0,1.6-0.5,3.1-1.5,4.3
		c-1,1.2-2.4,2.2-4.1,2.8V74c1,0.6,1.8,1.4,2.4,2.3c0.6,0.9,1.1,2.1,1.6,3.6l2.7,8.6h-5.7l-2.6-8.2c-0.4-1.4-1-2.5-1.9-3.3
		s-1.8-1.1-3-1.1h-8.5v12.6h-5.5V55.3z M487.7,71.1c1.5,0,2.6-0.4,3.5-1.2c0.9-0.8,1.3-1.8,1.3-3.1v-3.3c0-1-0.3-1.8-1-2.5
		c-0.7-0.6-1.5-0.9-2.7-0.9h-11.5v10.9H487.7z"/>
	<path class="st0" d="M276.2,125.2c-1.9-1.9-2.8-4.5-2.8-7.8h5.4c0,1.8,0.5,3.2,1.4,4.2c0.9,1,2.2,1.5,3.9,1.5h5.3
		c1.5,0,2.8-0.3,3.7-1c0.9-0.7,1.4-1.6,1.4-2.7v-2.1c0-0.9-0.3-1.6-1-2.1s-1.6-1-2.8-1.2l-8.6-1.5c-2.7-0.4-4.7-1.3-6.2-2.7
		c-1.4-1.3-2.2-3-2.2-5.1v-2.6c0-1.6,0.4-3,1.3-4.3c0.9-1.2,2.1-2.2,3.7-2.9c1.6-0.7,3.4-1,5.5-1h5.4c2,0,3.7,0.4,5.2,1.2
		s2.7,2,3.5,3.4c0.8,1.5,1.2,3.2,1.2,5.1H294c0-1.5-0.4-2.6-1.3-3.5s-1.9-1.4-3.2-1.4h-5.4c-1.5,0-2.7,0.3-3.6,1
		c-0.9,0.6-1.3,1.5-1.3,2.6v1.7c0,0.9,0.3,1.6,0.9,2.2c0.6,0.6,1.5,1,2.7,1.2l8.6,1.5c2.7,0.5,4.8,1.4,6.3,2.6
		c1.5,1.3,2.2,2.9,2.2,4.9v3.1c0,1.6-0.4,3-1.3,4.3c-0.9,1.2-2.1,2.2-3.7,2.9s-3.5,1-5.5,1H284C280.7,128.1,278.1,127.1,276.2,125.2
		z"/>
	<path class="st0" d="M309.7,126.5c-1.8-1-3.1-2.5-4.1-4.4c-1-1.9-1.5-4.1-1.5-6.5v-9.1c0-2.5,0.5-4.6,1.5-6.5
		c1-1.9,2.4-3.3,4.2-4.4c1.8-1,3.9-1.5,6.3-1.5h5c2.2,0,4.2,0.5,6,1.4c1.7,1,3.1,2.3,4,4.1s1.4,3.8,1.4,6.1h-5.4
		c0-2-0.6-3.6-1.7-4.9s-2.5-1.8-4.3-1.8h-5c-1.9,0-3.5,0.7-4.6,2.1c-1.2,1.4-1.8,3.3-1.8,5.6v8.7c0,2.3,0.6,4.2,1.7,5.6
		c1.1,1.4,2.6,2.1,4.5,2.1h5.1c1.8,0,3.3-0.7,4.5-2.1c1.1-1.4,1.7-3.2,1.7-5.4h5.4c0,2.5-0.5,4.6-1.4,6.5c-1,1.9-2.3,3.3-4.1,4.3
		c-1.8,1-3.8,1.5-6.1,1.5h-5.1C313.5,128.1,311.5,127.6,309.7,126.5z"/>
	<path class="st0" d="M337.7,94.6h5.5v33.2h-5.5V94.6z"/>
	<path class="st0" d="M351.3,126.6c-0.7-0.7-1.1-1.7-1.1-2.9V94.6h24.3v4.8h-18.8v9h17.3v4.8h-17.3v9.8h18.8v4.8h-20.2
		C353,127.7,352,127.3,351.3,126.6z"/>
	<path class="st0" d="M379.5,94.6h5l16.8,24.3V94.6h5.4v33.2h-5l-16.7-24.2v24.2h-5.4V94.6z"/>
	<path class="st0" d="M417.7,126.5c-1.8-1-3.1-2.5-4.1-4.4c-1-1.9-1.5-4.1-1.5-6.5v-9.1c0-2.5,0.5-4.6,1.5-6.5
		c1-1.9,2.4-3.3,4.2-4.4c1.8-1,3.9-1.5,6.3-1.5h5c2.2,0,4.2,0.5,6,1.4c1.7,1,3.1,2.3,4,4.1s1.4,3.8,1.4,6.1h-5.4
		c0-2-0.6-3.6-1.7-4.9s-2.5-1.8-4.3-1.8h-5c-1.9,0-3.5,0.7-4.6,2.1c-1.2,1.4-1.8,3.3-1.8,5.6v8.7c0,2.3,0.6,4.2,1.7,5.6
		c1.1,1.4,2.6,2.1,4.5,2.1h5.1c1.8,0,3.3-0.7,4.5-2.1c1.1-1.4,1.7-3.2,1.7-5.4h5.4c0,2.5-0.5,4.6-1.4,6.5c-1,1.9-2.3,3.3-4.1,4.3
		c-1.8,1-3.8,1.5-6.1,1.5h-5.1C421.5,128.1,419.5,127.6,417.7,126.5z"/>
	<path class="st0" d="M446.4,126.6c-0.7-0.7-1.1-1.7-1.1-2.9V94.6h24.3v4.8h-18.8v9h17.3v4.8h-17.3v9.8h18.8v4.8h-20.2
		C448.1,127.7,447.1,127.3,446.4,126.6z"/>
</g>
<g>
	<path class="st1" d="M320.6,140.5l-2.6,0.9c-1.8-1.9-4.3-2.8-7.5-2.8c-2.4,0-4.4,0.6-5.9,1.9c-1.5,1.2-2.3,2.8-2.3,4.7
		c0,2,0.8,3.6,2.3,4.8c1.5,1.2,3.5,1.8,6.1,1.8c3.1,0,5.5-1,7.3-2.9l2.5,1.4c-1.3,1.5-2.7,2.5-4.3,3.2c-1.6,0.7-3.5,1-5.7,1
		c-3.1,0-5.7-0.8-7.7-2.3c-2.3-1.8-3.5-4.1-3.5-7c0-2.8,1.2-5.1,3.6-6.9c2.1-1.6,4.6-2.3,7.7-2.3
		C314.9,135.9,318.3,137.5,320.6,140.5z"/>
	<path class="st1" d="M358.9,154h-16.4v-17.5h2.9v14.9h13.5V154z"/>
	<path class="st1" d="M398.9,148.4c0,1.8-0.9,3.3-2.7,4.4c-1.8,1.2-4.2,1.8-7.2,1.8s-5.4-0.6-7.3-1.8c-1.8-1.1-2.7-2.6-2.7-4.4
		v-11.9h2.9v11.2c0,1.4,0.6,2.4,1.8,3.1c1.2,0.7,2.9,1.1,5.2,1.1c2.3,0,4-0.4,5.2-1.1c1.2-0.7,1.8-1.8,1.8-3.1v-11.2h2.9V148.4z"/>
	<path class="st1" d="M439.2,145c2,0.7,3,2.2,3,4.4c0,3.1-2.2,4.6-6.6,4.6h-14v-17.5h14.2c1.8,0,3.2,0.4,4.2,1.3
		c1,0.9,1.5,2,1.5,3.5C441.5,142.9,440.7,144.1,439.2,145z M435.8,143.8c0.8,0,1.5-0.2,2-0.7c0.5-0.5,0.8-1,0.8-1.7
		c0-0.7-0.2-1.3-0.7-1.7c-0.5-0.4-1.1-0.6-2-0.6h-11.4v4.7H435.8z M435.6,151.4c2.4,0,3.6-0.8,3.6-2.4c0-1.7-1.1-2.6-3.2-2.6h-11.5
		v5H435.6z"/>
</g>
<g>
	<g>
		<polygon class="st2" points="42.6,42.7 42.6,72.2 68.1,86.9 93.6,72.2 93.6,42.7 68.1,27.9 		"/>
		<path class="st1" d="M68.1,89L40.7,73.2V41.6l27.4-15.8l27.4,15.8v31.6L68.1,89z M44.4,71.1l23.7,13.7l23.7-13.7V43.7L68.1,30.1
			L44.4,43.7V71.1z"/>
	</g>
	<g>
		<polygon class="st2" points="16.9,86.5 16.9,116 42.5,130.7 68,116 68,86.5 42.5,71.7 		"/>
		<path class="st1" d="M42.5,132.8L15.1,117V85.4l27.4-15.8l27.4,15.8V117L42.5,132.8z M18.8,114.9l23.7,13.7l23.7-13.7V87.5
			L42.5,73.9L18.8,87.5V114.9z"/>
	</g>
	<g>
		<polygon class="st2" points="42.5,130.4 42.5,159.9 68,174.6 93.5,159.9 93.5,130.4 68,115.7 		"/>
		<path class="st1" d="M68,176.7l-27.4-15.8v-31.6L68,113.5l27.4,15.8v31.6L68,176.7z M44.3,158.8L68,172.5l23.7-13.7v-27.4
			L68,117.8l-23.7,13.7V158.8z"/>
	</g>
	<rect x="16.8" y="89.7" class="st3" width="4.5" height="23"/>
	<rect x="43" y="45.9" class="st3" width="4.5" height="23"/>
	<rect x="42.5" y="133.6" class="st3" width="4.5" height="23"/>
</g>
<g>
	<g>
		<polygon class="st2" points="210.2,159.9 210.2,130.4 184.6,115.7 159.1,130.4 159.1,159.9 184.6,174.6 		"/>
		<path class="st1" d="M184.6,176.7l-27.4-15.8v-31.6l27.4-15.8l27.4,15.8v31.6L184.6,176.7z M161,158.8l23.7,13.7l23.7-13.7v-27.4
			l-23.7-13.7L161,131.5V158.8z"/>
	</g>
	<g>
		<polygon class="st2" points="235.8,116.1 235.8,86.6 210.3,71.9 184.8,86.6 184.8,116.1 210.3,130.8 		"/>
		<path class="st1" d="M210.3,132.9l-27.4-15.8V85.5l27.4-15.8l27.4,15.8v31.6L210.3,132.9z M186.6,115l23.7,13.7L234,115V87.7
			L210.3,74l-23.7,13.7V115z"/>
	</g>
	<g>
		<polygon class="st2" points="210.3,72.2 210.3,42.7 184.8,27.9 159.2,42.7 159.2,72.2 184.8,86.9 		"/>
		<path class="st1" d="M184.8,89l-27.4-15.8V41.6l27.4-15.8l27.4,15.8v31.6L184.8,89z M161.1,71.1l23.7,13.7l23.7-13.7V43.7
			l-23.7-13.7l-23.7,13.7V71.1z"/>
	</g>
	
		<rect x="231.5" y="89.8" transform="matrix(-1 -1.224647e-16 1.224647e-16 -1 467.4937 202.6899)" class="st3" width="4.5" height="23"/>
	
		<rect x="205.3" y="133.6" transform="matrix(-1 -1.224647e-16 1.224647e-16 -1 415.0958 290.2711)" class="st3" width="4.5" height="23"/>
	
		<rect x="205.8" y="45.9" transform="matrix(-1 -1.224647e-16 1.224647e-16 -1 416.1346 114.8441)" class="st3" width="4.5" height="23"/>
</g>
<g>
	<polygon id="big_hex_00000052814860747366967530000018058992710395454593_" class="st2" points="70.2,68.9 70.2,133.7 126.4,166.1 
		182.5,133.7 182.5,68.9 126.4,36.4 	"/>
	<path class="st1" d="M126.4,168.2l-58-33.5v-67l58-33.5l58,33.5v67L126.4,168.2z M72.1,132.6l54.3,31.4l54.3-31.4V69.9l-54.3-31.4
		L72.1,69.9V132.6z"/>
</g>
<g>
	<g>
		<path class="st4" d="M102.4,102.4c0-7.7,3.7-14.6,9.3-19l-22-28.1l-4,2l5.2,18.1l-2.8,2.2l-30-10.8l-2.7,3.7l24,19.8l-1.5,4.2
			L37,100v4.6l41.1,5.8l1.2,4.5L55.5,134l2.1,3.5l30.3-10.1l2.7,2.2l-4.9,18l4,2l22.2-28C106.1,117.2,102.4,110.2,102.4,102.4z"/>
		<path d="M89.7,55.2l22,28.1c-5.7,4.4-9.3,11.3-9.3,19c0,7.8,3.7,14.8,9.5,19.2l-22.2,28l-4-2l4.9-18l-2.7-2.2l-30.3,10.1l-2.1-3.5
			l23.7-19.1l-1.2-4.5L37,104.6V100l40.9-5.6l1.5-4.2l-24-19.8l2.7-3.7l30,10.8l2.8-2.2l-5.2-18.1L89.7,55.2 M90.8,50.6l-2.7,1.3
			l-4,2l-2.8,1.4l0.9,3L86.4,73l-27.1-9.8l-2.6-0.9l-1.6,2.2l-2.7,3.7L50.3,71l2.7,2.2l21.7,17.9l-38.2,5.2l-3.2,0.4v3.2v4.6v3.2
			l3.2,0.4l38.4,5.4l-21.7,17.4l-2.5,2l1.6,2.7l2.1,3.5l1.5,2.5l2.8-0.9l27.4-9.1l-4.1,14.8l-0.8,2.9l2.7,1.3l4,2l2.7,1.3l1.8-2.3
			l22.2-28l2.3-2.9l-3-2.3c-2.5-1.9-4.5-4.3-5.9-7c-1.5-2.9-2.2-6-2.2-9.2c0-3.2,0.7-6.3,2.1-9.1c1.4-2.7,3.4-5.1,5.8-7l2.9-2.3
			l-2.3-2.9l-22-28.1L90.8,50.6L90.8,50.6z"/>
	</g>
	<g>
		<path class="st4" d="M175.6,110.4l40.9-5.6v-4.6l-41.1-5.8l-1.2-4.5L198,70.8l-2.1-3.5l-30.3,10.1l-2.7-2.2l4.9-18l-4-2
			l-22.4,28.2c0,0,0,0,0,0c5.6,4.4,9.2,11.3,9.2,18.9c0,7.6-3.5,14.4-9,18.8l22.2,28.4l4-2l-5.2-18.1l2.8-2.2l30,10.8l2.7-3.7
			l-24-19.8L175.6,110.4z"/>
		<path d="M163.8,55.2l4,2l-4.9,18l2.7,2.2l30.3-10.1l2.1,3.5l-23.7,19.1l1.2,4.5l41.1,5.8v4.6l-40.9,5.6l-1.5,4.2l24,19.8l-2.7,3.7
			l-30-10.8l-2.8,2.2l5.2,18.1l-4,2l-22.2-28.4c5.5-4.4,9-11.2,9-18.8c0-7.7-3.6-14.5-9.2-18.9c0,0,0,0,0,0L163.8,55.2 M162.8,50.6
			l-1.8,2.3l-22.4,28.2l-1.9,2.3l1.9,2.3l0.3,0.3l0.3,0.2c4.9,3.9,7.8,9.8,7.8,16c0,6.2-2.8,12-7.6,15.9l-2.8,2.3l2.2,2.9l22.2,28.4
			l1.8,2.3l2.7-1.3l4-2l2.8-1.4l-0.9-3l-4.3-14.8l27.1,9.8l2.6,0.9l1.6-2.2l2.7-3.7l2.1-2.8l-2.7-2.2l-21.7-17.9l38.2-5.2l3.2-0.4
			v-3.2v-4.6v-3.2l-3.2-0.4l-38.4-5.4l21.7-17.4l2.5-2l-1.6-2.7l-2.1-3.5l-1.5-2.5l-2.8,0.9l-27.4,9.1l4.1-14.8l0.8-2.9l-2.7-1.3
			l-4-2L162.8,50.6L162.8,50.6z"/>
	</g>
</g>
<circle cx="126.1" cy="102.5" r="44.3"/>
<g>
	<linearGradient id="SVGID_1_" gradientUnits="userSpaceOnUse" x1="89.9453" y1="80.4153" x2="155.0803" y2="80.4153">
		<stop  offset="0" style="stop-color:#209FDA"/>
		<stop  offset="1" style="stop-color:#0256A0"/>
	</linearGradient>
	<path class="st5" d="M96.8,94.9c1.3-5.3,4.1-10.1,7.9-14l0,0c2.8-2.8,6-5,9.6-6.6c3.7-1.6,7.7-2.4,11.8-2.4c3.7,0,7.3,0.7,10.7,2
		c3.3,1.3,6.3,3.1,9,5.4l0.2,0.2h9l-1-1.1c-0.6-0.7-1.3-1.4-1.9-2.1c-3.4-3.4-7.3-6.1-11.7-8c-4.5-1.9-9.4-2.9-14.3-2.9
		c-5,0-9.8,1-14.3,2.9c-4.4,1.9-8.3,4.6-11.7,8c-5,5-8.4,11.4-9.9,18.3l-0.2,0.8h6.7L96.8,94.9z"/>
	
		<linearGradient id="SVGID_00000088820189703358291610000007489490926834430868_" gradientUnits="userSpaceOnUse" x1="97.1705" y1="124.6793" x2="162.3095" y2="124.6793">
		<stop  offset="0" style="stop-color:#209FDA"/>
		<stop  offset="1" style="stop-color:#0256A0"/>
	</linearGradient>
	<path style="fill:url(#SVGID_00000088820189703358291610000007489490926834430868_);" d="M155.5,110.2c-1.3,5.3-4.1,10.1-7.9,14
		c-2.8,2.8-6,5-9.6,6.6c-3.7,1.6-7.7,2.4-11.8,2.4c-3.7,0-7.3-0.7-10.7-2c-3.3-1.3-6.3-3.1-9-5.4l-0.2-0.2h-9l1,1.1
		c0.6,0.7,1.3,1.4,1.9,2.1c3.4,3.4,7.3,6.1,11.7,8c4.5,1.9,9.4,2.9,14.3,2.9c5,0,9.8-1,14.3-2.9c4.4-1.9,8.3-4.6,11.7-8
		c5-5,8.4-11.4,9.9-18.3l0.2-0.8h-6.7L155.5,110.2z"/>
	
		<linearGradient id="SVGID_00000044887114907141519190000005328190453644842674_" gradientUnits="userSpaceOnUse" x1="89.2798" y1="102.5462" x2="162.9729" y2="102.5462">
		<stop  offset="0" style="stop-color:#FCEF44"/>
		<stop  offset="5.699537e-02" style="stop-color:#FCDE33"/>
		<stop  offset="0.1286" style="stop-color:#FCD222"/>
		<stop  offset="0.2023" style="stop-color:#FDCA17"/>
		<stop  offset="0.2809" style="stop-color:#FDC713"/>
		<stop  offset="1" style="stop-color:#F29140"/>
		<stop  offset="1" style="stop-color:#ED683C"/>
		<stop  offset="1" style="stop-color:#ED6F3C"/>
	</linearGradient>
	<path style="fill:url(#SVGID_00000044887114907141519190000005328190453644842674_);" d="M162.9,99.9c-0.3-3.8-1.1-7.4-2.4-10.9
		c-0.7-1.8-1.6-3.6-2.6-5.3l-0.2-0.3h-37.6c-3,0-5.8,1.2-7.9,3.3c-2.1,2.1-3.3,4.9-3.3,7.9c0,3,1.2,5.8,3.3,7.9
		c2.1,2.1,4.9,3.3,7.9,3.3h12.1c1.2,0,2.4,0.5,3.3,1.4c0.9,0.9,1.4,2.1,1.4,3.3c0,1.2-0.5,2.4-1.4,3.3c-0.9,0.9-2,1.4-3.3,1.4H98.5
		c-1.3-3-2.2-6.1-2.5-9.4h17l-1.4-1.2c-0.3-0.2-0.5-0.5-0.8-0.7c-1.2-1.2-2.2-2.6-2.8-4.2l-0.2-0.4H89.4l0,0.6
		c-0.1,0.9-0.1,1.8-0.1,2.6c0,0.9,0,1.8,0.1,2.6c0.3,3.8,1.1,7.4,2.4,10.9c0.7,1.8,1.6,3.6,2.6,5.3l0.2,0.3h37.6
		c3,0,5.8-1.2,7.9-3.3c2.1-2.1,3.3-4.9,3.3-7.9c0-3-1.2-5.8-3.3-7.9c-2.1-2.1-4.9-3.3-7.9-3.3h-12.1c-1.2,0-2.4-0.5-3.3-1.4
		c-0.9-0.9-1.4-2.1-1.4-3.3c0-1.2,0.5-2.4,1.4-3.3c0.9-0.9,2-1.4,3.3-1.4h33.7c1.3,3,2.2,6.1,2.5,9.4h-17l1.4,1.2
		c0.3,0.2,0.5,0.5,0.8,0.7c1.2,1.2,2.2,2.6,2.8,4.2l0.2,0.4h18.4l0-0.6c0.1-0.9,0.1-1.8,0.1-2.6C163,101.7,162.9,100.8,162.9,99.9z"
		/>
</g>
</svg>
